<svg width="60" height="60" viewBox="0 0 60 60" fill="none" xmlns="http://www.w3.org/2000/svg">
<g id="Icon. Heart">
<path id="Icon" fill-rule="evenodd" clip-rule="evenodd" d="M15.7652 16.1871C12.5591 17.8948 10.0597 21.1082 10.0021 24.6157C9.98942 25.4062 10.0362 26.1942 10.085 26.9848C10.1416 27.9173 10.3404 28.4909 10.7901 29.8399C11.2398 31.1888 12.5298 33.3526 13.7286 34.9081C14.6026 36.0389 15.5906 37.0661 16.6304 38.0511C18.2184 39.5541 30.0716 48.5484 30.0716 48.5484C30.0716 48.5484 42.3198 39.0591 43.6961 37.73C44.7944 36.6619 45.8313 35.5413 46.715 34.2928C48.024 32.4354 49.4553 30.3823 49.7792 28.1501C49.8943 27.3519 49.9567 26.5511 49.986 25.7465C50.0308 24.5696 49.9791 23.3966 49.668 22.2517C48.9832 19.742 46.8916 17.7822 44.6374 16.4212C43.3801 15.6613 42.0087 15.2264 40.5436 15.0678C39.6228 14.968 38.702 14.9757 37.7861 15.119C36.0148 15.3966 34.4317 16.1014 33.0202 17.1887C31.8283 18.1008 30.8597 19.2098 30.0696 20.4737C30.0462 20.5082 30.0248 20.5427 30.0014 20.576C29.8677 20.3892 29.7585 20.214 29.6414 20.0426C28.4973 18.3668 27.0537 17.0135 25.2189 16.0848C24.1118 15.5245 22.9365 15.1791 21.6987 15.0524C21.3465 15.0166 20.9954 15 20.6442 15C20.1799 15 19.7166 15.0294 19.2533 15.0895C18.0214 15.2469 16.8557 15.6063 15.7652 16.1871Z" fill="#525C69"/>
</g>
</svg>
